/* XPM */
static char *_f0590c24b4f4ae5cd73fe078c0ff557vBGQ1HCrFSjlisEK[] = {
/* columns rows colors chars-per-pixel */
"64 64 44 1 ",
"  c black",
". c gray11",
"X c #28200C",
"o c #382C14",
"O c #400000",
"+ c #4C0000",
"@ c #580000",
"# c #640000",
"$ c #700000",
"% c #7C0000",
"& c #404000",
"* c #585400",
"= c #706C00",
"- c gray33",
"; c #646464",
": c gray44",
"> c #7C7C7C",
", c #880000",
"< c #980000",
"1 c #A40000",
"2 c #A80000",
"3 c #B00000",
"4 c #BC0000",
"5 c #C80000",
"6 c #D40000",
"7 c #FC2020",
"8 c #FC4040",
"9 c #FC5454",
"0 c #FC7C7C",
"q c #848400",
"w c #9C9C00",
"e c #B4AC00",
"r c #CCC400",
"t c #FCD424",
"y c #FCF440",
"u c #FCFC54",
"i c #FCF85C",
"p c #FCFC7C",
"a c gray55",
"s c #989898",
"d c gray66",
"f c #B4B4B4",
"g c #FCFC9C",
"h c #C0C0C0",
/* pixels */
"ssddf>aaaaaaaaaaa>>>aaaaaaaaaaaaaaaaaaaaaaaaaaaaaaaaaaaaaa>ssddf",
"ssdddafffffffffffffffffffffffffffffffffffffffffffffffffff-:ssddd",
"ssdffafaaaaaaaaaaaaaaaaaaaaaaaaaaaaaaaaaaaaaaaaaaaaaaaaaa-:ssdff",
"sddshafaaaaaaaaaaaaaaaaaaaaaaaaaaaaaaaaaaaaaaaaaaaaaaaaaa->sddsh",
"ssdffsfaaa78888888888000000000000000000000088888888888aaa->ssdff",
"asddfafaaa8                                          8aaa-:asddf",
"ssdff>faaa8 77888899 pp 0 pppppppppppp 0 ii 98888773 8aaa-:ssdff",
"sadffsfaaa8 77888899 pp 0 ppppppppppu  0 ii 98888775 8aaa-asadff",
"adfffsfaaa8 78888999 pp 0 pp         p 0 ii 99888874 8aaa->adfff",
"saddd>faaa9 78888999 pp 0   uggggg gpp 0 ii 998888OO 8aaa-:saddd",
"adddhsfaaa9X7888895@ pp 0 ppgggggg gpp 0 ii 998874O7 8aaa-:adddh",
"ssddfafaaa9X8887+# 9 pp 0 ppggggg ugpp 0 ii 8+#+O 77 9aaa->ssddf",
"addff>faaa9     7999 uu 0 uugggggg gpp 0 ii $7888887 9aaa-:addff",
"ssdddsfaaa9X88888999    0     uggg   i 0 uu 89888887 9aaa->ssddd",
"ssdfh>faaa0X88888999 uu 0 ppgg    ggu  0    99888888 9aaa-:ssdfh",
"ssdff>faaa0 88888999 pp 0 pppppppppppp 0 ui 99888888 9aaa->ssdff",
"assddsfaaa0 88888899 pp 0 pppppppppppp 9 ii 89888888 9aaa-:assdd",
"sddddafaaa0 7#   #89 pp 0 pwq**oo*=wup 9 iiOO,88883O 9aaa->sdddd",
"adsfhafaaa0 #88888#  pp 9 OOO#<5# #+O  9 ii 8OO86O 7 0aaa-aadsfh",
"ssddf>faaa0 88888899 pp @#8 0000 00091 1 iu 993OO488 0aaa-;ssddf",
"sdfffsfaaa0 88888899 p1O399 9008O999999  uu 98888888 0aaa->sdfff",
"sssdf>faaa0 88888899 XX3999 988  8999999 1u 98888888 0aaa-;sssdf",
"addffafaaa9 88888889  39999 89 pp 8999998 , 88888888 9aaa-aaddff",
"ssdddsfaaa9 88888887 3 9999 7 pppiO99888 8  +        9aaa->ssddd",
"sddff>faaa9 86#     39 8998  ppppO8     899  8888887 9aaa-;sddff",
"sdddhafaaa9  #7888$,899 897 pppp+898O88999 < 8888887 9aaa->sdddh",
"asddfafaaa8X788888 38898 2 ipppO888 i 7898 8 4888887 9aaa-;asddf",
"addffafaaa8.788883 888888Oiiii 793 iii 88 88, 888877 9aaa-aaddff",
"asddhafaaa8 78888%   888 4 iiii 5 iiiii 1 888 888877 8aaa-:asddh",
"asdfssfaaa> 77888  87 15883 iiii iiiiuuu 4888  88777 8aaa-aasdfs",
"sdddh>faaa> 77888 4885  5887 uuuuuuu uuuu 488< 88777 8aaa-;sdddh",
"addff>faaa> 77788 484 uuO4881 uuuuu 4 uuuu 581   477 8aaa->addff",
"ssdffsfaaa>  #778 47Oyyuu 584 uuuu 587 uuyyO   84    >aaa-:ssdff",
"adddf>faaa:X5##   < 5 yyyu 2 uuuuuu 785 yy 58< 77777 >aaa->adddf",
"asddfsfaaa: 77777  875 yyyy uuuuuuuu 785  O88  77777 >aaa-:asddf",
"sddff>faaa: 777773 8875 yyyyyyy  yyyyO7 77  7 777777 :aaa-asddff",
"adddfsfaaa: 777775 78874 yyyyyO57 yyyyO78881  777775 :aaa->adddf",
"asdffafaaa: 577777, 78885 yyy 574 yyytO88877 <777775 :aaa-aasdff",
"sdddfafaaa: 5577774 777874 yO673 yyyy 1 8777 7777754 :aaa-;sdddf",
"asddd>faaa: 4577777<#77   OO785 ttttO47 777 ,774+    :aaa-:asddd",
"ssdfhsfaaa:  #<7773    5777  2 tttt 3773 7     O<543 :aaa-assdfh",
"asddfafaaa: 3##    7  3777774 ttttO17777  # 77755432 :aaa-:asddf",
"ssdfhsfaaa: 23445777 r ,7777 O tt 277775  r 77554321 :aaa-:ssdfh",
"sddfdafaaa: 12344577 rr $   473  37777<  rr 75544321 :aaa-asddfd",
"ssdfhafaaa: <1234455 er   ,4477 37773  1 ee 5544321< :aaa-:ssdfh",
"ssddf:faaa: <<123445 ee 7    %, ,,, O< 7 ee 443321<< 8aaa-:ssddf",
"addffsfaaa8 <<<12344 ee 7 ee&X    X&ee 5 ee 43221<<< 8aaa-:addff",
"addffsfaaa8 ,<<<1223 ww 5 eeeeeeeeeeee 5 ww 3221<<<, 8aaa->addff",
"ssdsf>faaa8 ,,<#     ww 4 eeeeeeeeeeee 4 ww      %,, 8aaa->ssdsf",
"addffsfaaa8 %,, ,<11  q 4 wwq    qqqqq 3 qq 1<<<<    8aaa-;addff",
"sddffafaaa8    $<<<< =  2     =q       2 =  <<<<,,%% 8aaa-:sddff",
"asdfdafaaa8 %%%,,<<< qq 2 =qqqww qqqqq 1  = <<,,,%%$ 8aaa-:asdfd",
"ssddhafaaa8 $%%%,,,< qq 1 qqqqqq qqqqq < qq <,,,%%%$ 8aaa-assddh",
"sdddsafaaa8 $$%%%,,, == < q===  =qqqqq < == ,,%%%$$$ 8aaa->sddds",
"sssfhafaaa8 $$$%%%%, == <      *====== < == ,%%%$$$# 8aaa->sssfh",
"asddfsfaaa8 #$$$$%%% == , ====         , == %%%$$$## 8aaa->asddf",
"sdddd>faaa8 ###$$$%% == , ======= ==== , == %$$$$### 8aaa-:sdddd",
"sasdfsfaaa8 ####$$$$ == % ======* *=== % == $$$$###@ 8aaa--sasdf",
"adffhafaaa8 @@###$$$ *= % ======* *=== % ** $$$###@@ 8aaa-aadffh",
"asddfafaaa8                                          8aaa->asddf",
"sdddfafaaa88888888889999999999999999999999988888888888aaa->sdddf",
"assffsfaaaaaaaaaaaaaaaaaaaaaaaaaaaaaaaaaaaaaaaaaaaaaaaaaa-:assff",
"ssaa>;-----------------------------------------------------:asdf",
"a>::::::::::::::::::>>::::>>>>>>>>>>>>::::>>:::::::::::::::::::>"
};
