/* XPM */
static char *_72a91d9493643d291666e1078580d86PLHdDIaggF8qTUIx[] = {
/* columns rows colors chars-per-pixel */
"64 64 54 1 ",
"  c black",
". c #00001C",
"X c gray11",
"o c #28200C",
"O c #302410",
"+ c #382C14",
"@ c #202020",
"# c #282828",
"$ c #2C2C2C",
"% c gray19",
"& c gray22",
"* c #400000",
"= c #4C0000",
"- c #580000",
"; c #640000",
": c #700000",
"> c #403018",
", c #483818",
"< c #543C1C",
"1 c #5C4020",
"2 c #6C4824",
"3 c #744C28",
"4 c gray25",
"5 c #484848",
"6 c gray33",
"7 c #646464",
"8 c gray44",
"9 c #7C7C7C",
"0 c #80502C",
"q c #885830",
"w c #905C34",
"e c #9C6038",
"r c #A0643C",
"t c #A86840",
"y c #B47044",
"u c #BC7848",
"i c #C87C4C",
"p c #D08050",
"a c #DC8854",
"s c #E88C58",
"d c #F0945C",
"f c #FC9C60",
"g c #FCA470",
"h c #5C60FC",
"j c #7C80FC",
"k c #FCB080",
"l c #FCB890",
"z c #FCBC9C",
"x c #FCC4A4",
"c c #FCCCB0",
"v c #9C9CFC",
"b c #B8BCFC",
"n c gainsboro",
"m c #FCD8C4",
/* pixels */
"    XXXX#X#&4%&59hjhhvvvvbbhbbjbbbbbhbbbbvbjvjhjh584555&XXXXXXX.",
"  .XXXXX#%&5579h8h5v8v6bbbvbbhbbjbbjbjbvvvvv9jj9h89875%&4#XXXXXX",
" XXXXX***************ooo++++++ooo**************************%XXX.",
"  .XXX**************oo++++++++++oooo***********************XXXXX",
" XXXXX************OO++<200022<<<<+oooo*********************XXXXX",
"  XXXX***********+><<2eiddyyeeeee2,ooooo*******************XXXXX",
"XXXXXX********=*,22eygkcccnmmmmmmdde0+oooo*****************XXXXX",
"XXXXXX***=***=->3ydlzccccccmmmmccclggy0<oo ****************XXXXX",
"XXXXXX****=*=*-3tdklzzcccccmccccczkgddde3o o *=*=*=*=*=****XXXXX",
"XXXXXX******==3takllllzcccccczzkkklkkddde0>   ***===*******XXXXX",
"XXXXXX=*=*==-2yakkllllllxxxxzlkkllllkgditw2+   ***=*=*=*=**X#XXX",
"XXXXXX=====--epagkkfllllgkgllkaaaaakllfpieq2,o   **===*===*XX#X.",
"XXXXXX==-=--1iapaafffffkgagkapy00eaagggaiw331,oo **=====-=*X#XXX",
"XXXXXX====;;qpppaafffffasppi01>+o>2120eae01112+oo *=======*XXXX.",
"XXXXX#-=-;;1ppppaaaapiaaspy1+ooo++11<++<12<+<1>+o  *=====*=XXXXX",
"XXXXXX=----quuupapq310psap0ooooo<0w3,+oooooo+<>Oo   *======X#XXX",
"XXXXXX--;-<tuuppw<+OO<eaap3oooo>,>+oooooooooo+++Oo  **-=-=-XXXXX",
"XXXXXX-;;;0yuptq<Ooooo3aauqoooooo>oooooooooooOO+o    *=----XXXXX",
"XXXXXX--;:euuuute>O+Oo3aau0oooo,t2,+OooooooooOOOo    *=-;--X#XXX",
"XXXXXX=-;1tyyuyt3<>ooo3aau3o O2tuuuue1>+OooooOOoo    *=---=XXXXX",
"XX.XXX--+3tyytq>oo>ooOeaau2>O1yuuuee02221<,>>>ooo     *=-=-XXXXX",
"X XXXX-;+0tttqOOoo0,0tyaut3<10etuyppppppyte0<+Ooo     *----X#XXX",
"XXXXXX;>Oqtt0>oO1wttyyyyyw<10tttyppppyyytee01>Ooo      ----XXXX.",
"XXXXXX-OOwre,o,etttuuytt2>O+>>+>ettttttttew3<>Ooo      *---XXXXX",
"XXXXXX-oOwrr<1reryyyytt+Oo  oooo>ttttteeq031,+ooo      *---XXXXX",
"XXXXXX-oOwrw3wryuuute1Ooooo    o otttee0021,Ooooo      *=-=XXXX ",
"X XXXX-oOwrrrttuuur0,o            >wwwq321<+oooo        -=- XXXX",
"XXXXXX-oOwrrrruuutw,o              ,w002<<>oooo         =-- XXXX",
"XXXXXX-oO0rrruuuur<o                <231<>Oooo          *-- XXXX",
"XXXXXX-oO0wrryyyr0Oo                 ,1,>+oooo          *-- XXXX",
"XXXXXX-OO3wrrryyw1o                  o>,>Ooooo       @  *=- X XX",
"XXXXXX-OO1wrwrrrw,o                   O<<>Oooo      @    *= XXX ",
"XXXXXX-;O,0wwwwr0o                    o<2,Oooo     @      - XXXX",
"X XX X--O>0wwwww3o   oo               o>21+ooo            - XXXX",
"XXX XX--o+0wwwww1o  oooooo  o         oO21>ooo            -  XXX",
"X XX X=-Oo3qqwww2o >O0,  X$&@X X      oO<1>oo             = XXXX",
"XXXXXX-=+o3qqqqq3> 022O X             oO<1>oo             - XXXX",
" XX XX---o23qqqq3+oqq3o               oO,<+oo             =  XXX",
" X XX ---o23qqqq3,+qq2               ooO>>Oo              = XXX ",
"  X  X-->123qqqqq2<qq1              oooO>+oo             *= X XX",
"   XX --1O<3qqqqq33qq,             oooo>1,oo             *=  XXX",
" XXXXX=-<o+200qq020qq>             oooO221Oo             == X X ",
"    XX-=,oo233qqq2200>       X@ooooooo<331Oo            *=-  XX ",
" X XXX-->oo,233q322222o ooo>>102<>oooO2332Oo           *=-= XX X",
"  X  X-->oo,3333q2223q2>>23q3332,OoooO2332Oo          *=--- XX  ",
" X    -->,>>233333113qq33qqq3321Oooooo,33<oo         ==---- X  X",
"   X  -=>,,<133333313qqq0qq33331,Ooooo,31>o          --=-=-   X ",
" XX  X=--><<113330331qq0qqqqq0031,Ooo>131Oo         *====-=  X  ",
"    X -=-+>><10000033qqq0000qq0021>+>112>o          *=-=-=- X  X",
"   X X----OO>,2003030q0300qqqqq321<,<11,oo          *------  XX ",
"      ----OOo>12233000003qqqqq332<,,,,Oo            =------  X X",
"    X ----oo ><132230000330000222<>>+Oo            *-----==     ",
"      -=-=--;O>122222000030002321,>Ooo             *-=-=-=-     ",
" X    --=-=-=;O>1121112000022211>Ooo               *=-=-=-=     ",
"      -=-=-=-=OO>122111221111,+Ooo                 *-=-=-=-     ",
"      --------;OO>1221111<>+Oooo                  o*-------     ",
"      ---------O+O>1111>Ooooo                     o>---=---    X",
"      =---------OOO><<<>oo                         11---===     ",
"      -=-=-=----OOOOO>>>Oo                        211=-=-==     ",
"      =---=---=--OOOOOOOoo                      o2211-=-=-=     ",
"      -*==-=---=-ooOOOOOoo                    O11212+=-=-==     ",
"      X                                                         ",
"                     X  X   X X X XX  XXX X       X             ",
"                                                                "
};
