/* XPM */
static char *c9646eba7738444dc45e4fefb29acf68wJEarkBfnnBaQ9Vp[] = {
/* columns rows colors chars-per-pixel */
"8 8 2 1 ",
"  c None",
". c #C2C3C7",
/* pixels */
"........",
"   .   .",
"........",
" .   .  ",
"........",
"   .   .",
"........",
" .   .  "
};
