/* XPM */
static char *ba242d3d3fe54d8be6f45f614eb50cfezGXaSlpb3trkyMst[] = {
/* columns rows colors chars-per-pixel */
"8 8 2 1 ",
"  c #C2C3C7",
". c #696A6A",
/* pixels */
"........",
".   .   ",
"........",
"  .   . ",
"........",
".   .   ",
"........",
"  .   . "
};
